# xmcd
#
# Track frame offsets:
#	150
#	10072
#	23577
#	37937
#	50452
#	61260
#	71737
#	87190
#	101867
#	117772
#	130820
#	141580
#	154377
#	168325
#	183772
#	198482
#	212262
#	226305
#	243247
#	258937
#
# Disc length: 3603 seconds
#
# Revision: 0
# Processed by: cddbd v1.5.1PL2 Copyright (c) Steve Scherf et al.
# Submitted via: dBpowerAMP V4.0
#
DISCID=090e1114
DTITLE=Leon Schuster - Leon Schuster
DYEAR=1993
DGENRE=Afrikaans
TTITLE0=Baba Boogie
TTITLE1=Die Rugby Onthaal
TTITLE2=Daai Voël
TTITLE3=Haak Vrystaat Haak
TTITLE4=Hello Bokkie
TTITLE5=Hoppitieskoppitie Rugbybal
TTITLE6=Verkouelied
TTITLE7=Ek Is Voos
TTITLE8=Klap Klap: Die Song
TTITLE9=What A Boytjie
TTITLE10=Itsy Bitsy Teenie Wheenie Yellow Polka Dot Bikini
TTITLE11=Province!!
TTITLE12=Swem Jannie Swem
TTITLE13=Vet Let
TTITLE14=Dirty Dancing
TTITLE15=Bloekomboos Blues
TTITLE16=Briekdans
TTITLE17=Mokkiesdam Se Eerste Span
TTITLE18=Dasiefoutie!
TTITLE19=She Sells Sea Shells
EXTD=
EXTT0=
EXTT1=
EXTT2=
EXTT3=
EXTT4=
EXTT5=
EXTT6=
EXTT7=
EXTT8=
EXTT9=
EXTT10=
EXTT11=
EXTT12=
EXTT13=
EXTT14=
EXTT15=
EXTT16=
EXTT17=
EXTT18=
EXTT19=
PLAYORDER=
